<svg xmlns="http://www.w3.org/2000/svg" version="1.1" xmlns:xlink="http://www.w3.org/1999/xlink" xmlns:svgjs="http://svgjs.com/svgjs" width="1000" height="1000"><rect width="1000" height="1000" rx="200" ry="200" fill="#ffffff"></rect><g transform="matrix(13.88888888888889,0,0,13.88888888888889,3.6849348280164804,79.36849551730683)"><svg xmlns="http://www.w3.org/2000/svg" version="1.1" xmlns:xlink="http://www.w3.org/1999/xlink" xmlns:svgjs="http://svgjs.com/svgjs" width="72" height="61"><svg width="72" height="61" viewBox="0 0 72 61" fill="none" xmlns="http://www.w3.org/2000/svg">
<path d="M7.12602 30.2688C7.12602 46.4335 20.2301 59.5376 36.3948 59.5376C49.4752 59.5376 60.5516 50.957 64.3021 39.1175M7.12602 30.2688L1 37.0755M7.12602 30.2688L13.9327 36.3948" stroke="#008080" stroke-width="2" stroke-linecap="round"></path>
<path d="M64.3022 30.2688C64.3022 14.1041 51.1981 1.00004 35.0334 1.00004C21.953 1.00003 10.8767 9.58062 7.12608 21.4201M64.3022 30.2688L70.4282 23.4621M64.3022 30.2688L57.4955 24.1428" stroke="#008080" stroke-width="2" stroke-linecap="round"></path>
<rect x="37.2783" y="22.8274" width="4.47604" height="21.6437" rx="1" transform="rotate(-45 37.2783 22.8274)" stroke="#202020" stroke-width="2"></rect>
<rect x="31.4683" y="19.9519" width="8.71259" height="5.96124" transform="rotate(-45 31.4683 19.9519)" stroke="#202020" stroke-width="2"></rect>
<rect x="35.7568" y="11.9182" width="4.12702" height="11.0054" rx="2.06351" transform="rotate(-45 35.7568 11.9182)" stroke="#202020" stroke-width="2"></rect>
<rect x="26.7139" y="20.8152" width="3.95876" height="10.9899" rx="1.97938" transform="rotate(-45 26.7139 20.8152)" stroke="#202020" stroke-width="2"></rect>
<rect x="17.7139" y="47.8909" width="4.08401" height="20.4201" rx="1" transform="rotate(-90 17.7139 47.8909)" stroke="#202020" stroke-width="2"></rect>
<rect x="21.7139" y="44" width="6" height="12" rx="1" transform="rotate(-90 21.7139 44)" stroke="#202020" stroke-width="2"></rect>
</svg></svg></g></svg>